<?xml version="1.0"?>
<svg xmlns="http://www.w3.org/2000/svg" height="512px" viewBox="-52 0 457 457.14286" width="512px" class=""><g><path d="m344.164062 176.691406c0 92.421875-167.546874 271.308594-167.546874 271.308594s-167.40625-178.886719-167.40625-271.308594c0-92.5625 74.984374-167.546875 167.40625-167.546875 92.5625 0 167.546874 74.984375 167.546874 167.546875zm0 0" fill="#eb675e" data-original="#EB675E" class="" style="fill:#FFC062" data-old_color="#14.442"/><path d="m176.617188 457.144531c-2.535157 0-4.949219-1.050781-6.679688-2.898437-6.9375-7.410156-169.8671875-182.617188-169.8671875-277.554688 0-97.429687 79.1992185-176.691406 176.5468755-176.691406 97.425781 0 176.6875 79.261719 176.6875 176.691406 0 94.941406-163.074219 270.148438-170.019532 277.558594-1.722656 1.84375-4.140625 2.894531-6.667968 2.894531zm0-438.859375c-87.269532 0-158.261719 71.0625-158.261719 158.40625 0 77.507813 127.375 223.5 158.261719 257.75 30.910156-34.25 158.402343-180.242187 158.402343-257.75 0-87.34375-71.0625-158.40625-158.402343-158.40625zm0 0" fill="#2a3d4f" data-original="#2A3D4F" class="" style="fill:#000000" data-old_color="#2A3D4F"/><path d="m236.257812 176.644531c0 32.875-26.671874 59.546875-59.59375 59.546875-32.875 0-59.546874-26.671875-59.546874-59.546875 0-32.921875 26.671874-59.59375 59.546874-59.59375 32.921876 0 59.59375 26.671875 59.59375 59.59375zm0 0" fill="#e7e4f3" data-original="#E7E4F3" class="active-path" style="fill:#FCE8C8" data-old_color="#EDDDC2"/><path d="m176.660156 245.335938c-37.875 0-68.6875-30.8125-68.6875-68.6875 0-37.902344 30.8125-68.742188 68.6875-68.742188 37.902344 0 68.742188 30.839844 68.742188 68.742188 0 37.875-30.839844 68.6875-68.742188 68.6875zm0-119.144532c-27.792968 0-50.402344 22.632813-50.402344 50.457032 0 27.789062 22.609376 50.402343 50.402344 50.402343 27.820313 0 50.457032-22.613281 50.457032-50.402343 0-27.824219-22.636719-50.457032-50.457032-50.457032zm0 0" fill="#2a3d4f" data-original="#2A3D4F" class="" style="fill:#000000" data-old_color="#2A3D4F"/></g> </svg>
