<?xml version="1.0" encoding="utf-8"?>
<!-- Generator: Adobe Illustrator 23.0.1, SVG Export Plug-In . SVG Version: 6.00 Build 0)  -->
<svg version="1.1" id="Layer_1" xmlns="http://www.w3.org/2000/svg" xmlns:xlink="http://www.w3.org/1999/xlink" x="0px" y="0px"
	 viewBox="0 0 14400 14400" style="enable-background:new 0 0 14400 14400;" xml:space="preserve">
<style type="text/css">
	.st0{fill:#379B37;}
</style>
<g>
	<g>
		<path class="st0" d="M7013.75,7148.12c0.83,1.21,1.58,2.47,2.5,3.61c2.14,2.67,3.78,5.63,4.58,8.91
			c1.33,5.43,0.76,10.68-2.18,15.62c-1.75,2.94-3.95,5.48-6.53,7.63c-1.72,1.43-3.88,2.33-5.85,3.45c-0.58,0.33-1.19,0.6-1.78,0.9
			c-0.19,0.1-0.36,0.27-0.55,0.31c-1.74,0.35-3.46,0.86-5.22,0.98c-2.32,0.16-4.7,0.28-6.98-0.06c-6.45-0.95-11.57-4.17-14.67-9.98
			c-1.39-2.6-1.49-5.58-0.96-8.53c0.48-2.7,1.7-4.99,3.73-6.79c0.67-0.59,1.63-0.9,2.5-1.18c3.56-1.12,8.4,0.17,10.37,3.97
			c1.06,2.05,1.26,4.23,0.45,6.49c-0.67,1.89-1.83,3.28-3.46,4.41c-0.9,0.62-1.69,1.48-2.34,2.37c-0.79,1.09-0.65,2.36,0.26,3.35
			c2.26,2.46,5.08,3.19,8.34,2.63c3.59-0.62,5.79-2.92,7.48-5.92c0.96-1.7,0.97-3.47,0.3-5.26c-1.53-4.07-4.04-7.46-7.1-10.52
			c-2.21-2.2-4.14-4.66-5.64-7.43c-0.64-1.19-1.37-2.34-1.87-3.59c-1.57-3.93-2.45-8.01-2.61-12.26c-0.15-3.99,0.75-7.79,2.31-11.38
			c1.12-2.59,2.93-4.83,5.14-6.63c1.85-1.51,3.75-2.98,5.73-4.3c1.2-0.8,2.58-1.34,3.92-1.88c5.02-2.03,10.08-3.99,15.1-6.02
			c1.99-0.81,3.94-1.71,5.9-2.59c1.6-0.71,3.2-1.42,4.77-2.19c1.03-0.51,1.99-1.16,3.02-1.67c0.95-0.47,1.7-0.26,2.25,0.66
			c0.59,1,1.08,2.05,1.63,3.08c1.23,2.33,2.98,4.19,5.19,5.6c1.04,0.67,2.11,1.32,3.24,1.8c1.98,0.85,4.05,1.16,6.2,0.65
			c1.11-0.26,2.25-0.42,3.34-0.72c2.15-0.59,3.72-2.1,5.34-3.51c0.68-0.6,1.43-1.12,2.1-1.73c0.51-0.46,0.81-0.24,1.05,0.24
			c0.4,0.81,0.45,1.63,0,2.44c-2.31,4.15-5.47,7.56-9.31,10.3c-3.98,2.85-8.49,4.6-13.35,5.11c-7.34,0.77-13.93-1.11-19.08-6.67
			c-1.46-1.58-2.53-3.53-3.71-5.36c-0.36-0.55-0.58-0.76-1.27-0.47c-3.75,1.55-6.88,3.82-8.77,7.52c-1.3,2.54-1.57,5.27-1.2,8.06
			c0.53,3.95,1.91,7.62,3.77,11.13c0.35,0.67,0.69,1.35,0.99,2.04c0.41,0.94,0.61,1.05,1.49,0.63c1.91-0.9,3.81-1.79,5.7-2.73
			c3.5-1.74,7.05-3.31,10.74-4.62c3.51-1.25,7.06-2.15,10.79-2.29c2.31-0.08,4.58,0.09,6.84,0.64c7.16,1.73,12.27,6.15,16.15,12.19
			c3.21,4.99,5.07,10.48,5.52,16.38c0.27,3.57-0.13,7.13-0.89,10.67c-0.91,4.19-3.32,7.53-5.83,10.81c-2.14,2.8-4.6,5.33-7.53,7.32
			c-4.37,2.96-8.94,5.58-13.87,7.54c-1.54,0.61-2.96,1.52-4.46,2.24c-0.71,0.34-1.48,0.53-2.21,0.83c-3.5,1.43-6.99,2.88-10.48,4.32
			c-0.65,0.27-1.33,0.45-1.95,0.75c-0.59,0.29-0.95,0.12-1.11-0.45c-0.29-0.99-0.48-2-0.78-2.98c-0.88-2.84-2.29-5.28-5.19-6.52
			c-2.83-1.22-5.41-0.49-7.83,1.08c-1.37,0.88-2.46,2.06-3.01,3.65c-1,2.88-0.42,5.49,1.36,7.88c2.12,2.85,5.08,4.34,8.45,5.12
			c3.43,0.8,6.88,0.5,10.31-0.07c6.2-1.04,11.72-3.63,16.66-7.5c0.44-0.34,1.24-0.6,1.7-0.43c0.71,0.26,0.6,1.1,0.47,1.77
			c-0.31,1.63-1.67,2.4-2.82,3.31c-4.82,3.79-10.55,5.57-16.36,6.9c-3.27,0.75-6.74,0.76-10.12,0.15c-1.37-0.25-2.74-0.48-4.11-0.77
			c-2-0.41-3.51-1.67-4.83-3.09c-3.15-3.41-5.18-7.31-4.69-12.15c0.31-3.07,1.27-5.89,2.96-8.5c1.5-2.31,3.27-4.39,5.38-6.14
			c2.01-1.68,4.31-2.9,6.81-3.73c3.85-1.29,7.78-1.7,11.7-0.55c4.13,1.21,7.8,3.23,10.34,6.89c0.84,1.21,1.74,2.38,2.72,3.72
			c0.82-0.67,1.79-1.3,2.55-2.13c1.89-2.05,3.76-4.2,4.7-6.86c0.73-2.06,1.1-4.27,1.47-6.44c0.62-3.56,0.26-7.11-0.93-10.48
			c-0.8-2.27-1.95-4.44-3.11-6.56c-1.71-3.14-3.47-6.26-5.38-9.27c-1.53-2.41-3.78-4.16-6.17-5.69c-3.74-2.41-7.88-3.31-12.28-3.21
			C7018.02,7146.42,7015.06,7147.26,7013.75,7148.12z"/>
		<path class="st0" d="M7126.48,7270.75c0.51,0.07,0.93,0.08,1.32,0.18c1.56,0.41,2.87-0.13,4.03-1.11
			c0.54-0.46,0.56-1.41-0.08-2.14c-0.75-0.84-1.63-1.57-2.52-2.27c-2.19-1.74-4.1-3.65-5.04-6.39c-1.05-3.08-1.31-6.09-0.18-9.23
			c0.79-2.2,1.44-4.43,2.9-6.32c1.94-2.51,4.24-4.53,7.2-5.79c5.42-2.3,10.57-1.7,15.47,1.4c1.41,0.89,2.65,2.04,4.06,3.14
			c0.14-0.18,0.38-0.48,0.61-0.78c1.52-2.02,3.39-3.52,5.78-4.48c4.15-1.67,8.14-0.92,11.95,0.83c1.73,0.79,3.12,2.36,4.66,3.58
			c0.23,0.18,0.44,0.4,0.71,0.64c1.73-2.6,4.04-4.36,7.02-5.04c3.71-0.85,7.29-0.46,10.29,2.1c1.82,1.55,2.79,3.64,2.87,6.07
			c0.06,1.82-0.05,3.64,0.13,5.45c0.14,1.36,0.43,2.77,0.99,4c0.64,1.4,2.07,1.91,3.56,1.98c0.8,0.04,1.14,0.26,0.85,1.08
			c-0.03,0.08-0.03,0.18-0.03,0.27c0.01,2.03,0.03,1.67-1.95,1.74c-1.3,0.04-2.44,0.37-3.56,0.93c-1.13,0.57-1.56,1.69-1.94,2.76
			c-1.15,3.2-1.95,6.48-2.06,9.92c-0.07,2.53,0.52,4.93,1.21,7.32c0.31,1.07,0.68,2.14,1.12,3.17c0.85,1.95,1.84,2.36,3.84,1.61
			c1.02-0.38,2-0.84,3.13-1.31c0.21,0.7,0.46,1.31,0.57,1.95c0.04,0.25-0.15,0.66-0.36,0.82c-2.05,1.5-4.15,2.94-6.2,4.44
			c-1.63,1.2-3.21,2.48-4.83,3.71c-0.96,0.73-1.94,1.44-2.95,2.11c-0.17,0.11-0.59,0.09-0.75-0.04c-2.07-1.7-4.02-3.56-5.31-5.92
			c-0.79-1.45-1.24-3.08-1.86-4.63c-1.08-2.73-0.85-5.59-0.92-8.43c-0.07-2.69,0.82-5.19,1.4-7.75c0.63-2.79,1.78-5.42,4.07-7.22
			c1.36-1.06,3.05-1.69,4.59-2.52c1.17-0.63,2.35-1.24,3.52-1.87c0.21-0.11,0.4-0.24,0.6-0.37c-0.05-0.08-0.1-0.16-0.14-0.23
			c-0.75-0.16-1.51-0.33-2.26-0.49c-4.08-0.89-5.98-3.75-6.73-7.57c-0.19-0.98-0.18-1.99-0.26-2.99c-0.11-1.3-0.27-2.6-0.31-3.9
			c-0.04-1.49-1.65-2.04-2.63-1.78c-1.07,0.29-1.88,0.94-2.35,1.98c-0.9,2-1.25,4.06-1.09,6.27c0.22,2.99,0.27,5.99,0.27,8.99
			c0,5.55-1.03,10.95-3.07,16.08c-1.48,3.73-3.79,7.01-6.52,10.01c-2.95,3.25-5.85,6.56-8.59,9.99c-0.92,1.15-2.03,1.96-3.16,2.8
			c-0.17,0.13-0.76-0.05-0.97-0.27c-1.57-1.55-3.11-3.13-4.62-4.75c-1.01-1.08-1.94-2.23-2.97-3.42c-1.93,2.25-3.83,4.47-5.8,6.76
			c-0.91-0.71-1.68-1.32-2.65-2.07c1.12-1.46,2.14-2.8,3.15-4.14c2.56-3.38,5.11-6.77,7.67-10.16c0.62-0.82,1.24-1.65,1.84-2.48
			c0.41-0.57,0.98-0.56,1.45-0.25c0.9,0.6,1.79,1.24,2.57,1.98c1.94,1.83,3.81,3.72,5.71,5.58c0.05,0.05,0.16,0.05,0.37,0.11
			c0.03-0.32,0.09-0.6,0.09-0.88c-0.09-4.63-0.18-9.25-0.28-13.88c-0.11-5.03-0.21-10.07-0.35-15.1c-0.07-2.54-0.12-5.09-0.37-7.61
			c-0.11-1.14-0.63-2.27-1.09-3.35c-0.39-0.92-1.14-1.48-2.2-1.51c-1.13-0.03-2.04,0.5-2.37,1.85c-0.34,1.39-0.53,2.87-0.42,4.29
			c0.19,2.44,0.75,4.85,0.99,7.29c0.26,2.59,0.37,5.19,0.48,7.79c0.19,4.54-1.47,8.49-4.12,12.06c-2.54,3.43-5.13,6.83-7.81,10.16
			c-1.23,1.53-2.71,2.86-4.11,4.24c-1.93,1.89-3.67,3.93-4.9,6.35c-0.3,0.58-0.78,0.36-1.08,0.13c-1.19-0.92-2.38-1.86-3.47-2.89
			c-1.45-1.37-2.83-2.82-4.21-4.27c-0.48-0.5-0.94-0.54-1.54-0.24c-1.27,0.64-2.09,1.67-2.75,2.91c-0.29,0.54-0.71,1.2-1.22,1.36
			c-0.38,0.12-1.1-0.36-1.46-0.75c-0.97-1.06-0.94-1.51-0.05-2.65c2.35-2.97,4.62-6.01,7.09-8.87c1.48-1.71,3.28-3.14,4.97-4.66
			c0.17-0.15,0.7-0.13,0.89,0.03c2.24,1.8,4.46,3.64,6.68,5.46c0.06,0.05,0.15,0.08,0.34,0.18c0.12-0.96,0.31-1.87,0.34-2.77
			c0.18-4.21,0.36-8.42,0.46-12.63c0.07-3.03,0.17-6.07,0-9.09c-0.23-4.01-0.25-8.08-1.94-11.86c-1.23-2.74-4.01-4.51-7.17-3.79
			c-1.33,0.3-2.71,0.79-2.94,2.53c-0.27,2.06,0.41,3.67,2.06,4.92c1.54,1.17,3.21,2.22,4.55,3.59c2.67,2.74,4.01,6.05,3.76,9.98
			c-0.11,1.77-0.04,3.6-1.24,5.02c-2.44,2.88-5.27,5.19-9.22,5.61C7128.06,7273.49,7126.87,7272.62,7126.48,7270.75z"/>
		<path class="st0" d="M7276.84,7236.64c-1.12,0.33-2.06,0.6-3.07,0.9c0.83,1.45,1.58,2.76,2.47,4.32c0.4-0.69,0.72-1.12,0.92-1.6
			c0.5-1.2,1.36-2.1,2.42-2.77c2.87-1.79,5.86-3.38,9.32-3.62c2.08-0.15,4.17-0.03,6.26,0c0.5,0.01,1.2-0.03,1.44,0.26
			c0.26,0.31,0.1,0.98,0.11,1.5c0.01,0.21-0.02,0.43,0.01,0.64c0.06,0.57-0.15,0.78-0.76,0.81c-1.14,0.06-2.3,0.15-3.42,0.4
			c-2.75,0.61-4.47,2.34-4.97,5.13c-0.22,1.22-0.35,2.47-0.35,3.7c0.01,3.7,0.11,7.4,0.17,11.1c0,0.17,0.05,0.34,0.1,0.69
			c1.3-0.81,2.53-1.5,3.67-2.32c2.49-1.78,4.92-3.63,7.39-5.44c0.34-0.25,0.72-0.46,1.1-0.63c0.54-0.24,0.83-0.15,1.29,0.43
			c1.14,1.44,2.55,2.66,3.81,4.01c0.7,0.75,1.41,1.51,1.94,2.38c0.79,1.31,0.63,2.72-0.23,3.94c-1.38,1.96-3.13,3.52-5.58,4.27
			c0.13,0.15,0.21,0.31,0.33,0.4c2.01,1.41,3.28,3.36,4.24,5.57c1.19,2.72,1.93,5.54,2.22,8.49c0.15,1.6,0.34,3.21,1.35,4.56
			c0.52,0.7,1.12,1.03,2.03,0.67c0.62-0.25,1.3-0.33,2.16-0.54c-0.34,1.33-0.6,2.41-0.9,3.48c-0.05,0.18-0.25,0.35-0.43,0.45
			c-2.64,1.53-4.83,3.61-7.02,5.7c-0.88,0.84-1.72,1.63-3.11,1.65c-1.9,0.03-3.34-0.73-4.21-2.32c-1.45-2.65-2.08-5.54-2.16-8.56
			c-0.08-2.88-1.18-5.48-2.35-8.05c-0.29-0.63-0.53-1.29-0.9-1.88c-1.05-1.64-2.06-1.59-3.24-0.05c-0.57,0.75-0.88,1.82-0.98,2.78
			c-0.18,1.77-0.15,3.57-0.16,5.36c0,1.3,0.73,2.34,1.57,3.18c0.42,0.42,1.27,0.42,1.94,0.56c0.28,0.06,0.59-0.04,0.94-0.07
			c0.29,1.55-0.2,2.83-1.27,3.81c-2.35,2.13-4.69,4.29-7.36,6.03c-0.76,0.5-1.41,0.53-2.16-0.03c-2.76-2.07-5.54-4.09-8.3-6.15
			c-0.41-0.3-0.75-0.71-1.09-1.09c-0.9-1.03-0.8-1.78,0.32-2.64c0.6-0.46,1.19-0.94,1.83-1.35c0.63-0.41,0.87-0.94,0.86-1.67
			c-0.02-6.67-0.07-13.35-0.01-20.02c0.03-3.06,0.28-6.11,0.42-9.17c0.14-2.94-0.36-5.73-1.95-8.27c-0.8-1.28-1.58-2.58-2.37-3.87
			c-0.55-0.89-1.07-1.8-1.68-2.65c-0.13-0.18-0.62-0.24-0.88-0.16c-1.55,0.51-3.09,1.07-4.62,1.63c-0.87,0.32-1.74,0.65-2.72,1.02
			c0.58,0.75,1.06,1.43,1.6,2.05c1.66,1.93,2.58,4.2,2.77,6.7c0.13,1.79,0.15,3.65-0.14,5.41c-0.39,2.35-1.76,4.29-3.36,6.03
			c-0.9,0.98-1.86,1.92-2.18,3.29c-0.02,0.08,0,0.18,0,0.23c1.01,0.37,2.08,0.59,2.95,1.13c2.29,1.42,3.46,3.5,3.61,6.26
			c0.13,2.26-0.19,4.38-1.04,6.47c-1.1,2.74-2.88,5.01-4.93,7.06c-3.36,3.35-6.81,6.62-10.19,9.96c-0.57,0.56-0.85,0.54-1.54,0.06
			c-1.63-1.14-3.42-2.05-5.13-3.07c-3.04-1.81-6.14-1.76-9.33-0.43c-0.58,0.24-1.26,0.29-1.82,0.56c-0.89,0.43-1.44,0.02-1.93-0.62
			c-0.51-0.66-0.31-1.32,0.11-1.93c1.42-2.04,2.87-4.05,4.27-6.09c0.98-1.42,1.89-2.89,2.85-4.31c0.4-0.58,0.02-0.81-0.39-1.05
			c-1.27-0.75-2.58-1.4-3.65-2.5c-1.94-1.99-2.5-4.34-2.01-6.95c0.48-2.58,1.27-5.06,3.07-7.09c0.3-0.33,0.63-0.63,0.96-0.93
			c0.94-0.86,1.88-1.72,2.84-2.56c2.22-1.92,4.49-3.79,6.66-5.76c1.27-1.16,2.38-2.49,3.61-3.8c0.63,0.49,1.28,0.96,1.89,1.48
			c1.81,1.54,3.96,2.33,6.25,2.74c1.59,0.29,2.82-0.55,3.63-2.24c1.5-3.12,0.46-6.62-2.51-8.37c-0.24-0.14-0.72-0.13-0.96,0.02
			c-1.87,1.18-3.7,2.42-5.55,3.63c-0.15,0.1-0.3,0.21-0.46,0.3c-1.44,0.82-1.41,0.8-2.08-0.67c-0.49-1.07-1.04-2.13-1.64-3.14
			c-0.88-1.48-1.94-1.51-3.41-0.67c-2.09,1.19-2.71,3.25-3.53,5.21c-0.79,1.88-0.77,1.89-2.9,1.46c0.35-4.35,2.28-7.72,6.22-9.88
			c-0.03-0.07-0.05-0.15-0.08-0.22c-0.69-0.15-1.39-0.29-2.08-0.45c-0.29-0.07-0.68-0.1-0.82-0.3c-1.01-1.4-1.45-2.98-1.48-4.82
			c0.62,0.21,1.12,0.32,1.56,0.55c2.1,1.09,4.6,1.41,6.29,3.31c0.13,0.14,0.51,0.15,0.74,0.1c3.28-0.73,6.37,0.01,9.44,1.11
			c0.37,0.13,0.86,0.24,1.2,0.1c2.5-0.99,4.95-2.11,7.48-3.05c1.98-0.73,4.01-1.32,6.06-1.8c0.61-0.14,1.43,0.17,2.02,0.52
			C7275.08,7235.12,7275.83,7235.84,7276.84,7236.64z M7255.36,7285.52c1.95-2.88,1.9-5.31,0.04-8.58
			c-1.36-2.38-4.71-3.48-7.72-2.69c-3.38,0.88-5.33,3.07-5.99,6.18C7246.49,7281.47,7251.1,7283.06,7255.36,7285.52z
			 M7242.88,7260.03c-0.2,0.92-0.48,1.69-0.51,2.47c-0.03,0.81,0.19,1.62,0.26,2.43c0.2,2.38,1.44,3.85,3.63,4.85
			c3.88,1.78,8.21,0.05,9.5-3.17c0.38-0.94,0.33-1.11-0.68-1.17c-2.56-0.15-4.94-0.85-7.1-2.26c-1.46-0.96-2.94-1.9-4.41-2.85
			C7243.44,7260.27,7243.3,7260.22,7242.88,7260.03z M7287.64,7267.05c0.14,0.89,0.29,1.78,0.41,2.68c0.07,0.52,0.33,0.6,0.75,0.4
			c0.52-0.24,1.04-0.49,1.56-0.74c2.02-0.99,3.79-2.28,4.85-4.33c0.39-0.76,0.91-1.55,0.48-2.49c-1.14-2.46-3.5-3.05-5.45-1.23
			C7288.65,7262.82,7287.43,7264.64,7287.64,7267.05z M7250.97,7244.06c0.95-0.66,1.77-1.22,2.58-1.78
			c-0.03-0.12-0.06-0.23-0.08-0.35c-1.15-0.13-2.3-0.27-3.72-0.43C7250.24,7242.53,7250.58,7243.25,7250.97,7244.06z"/>
		<path class="st0" d="M7322.09,7185.43c0.53,1.32,0.27,2.41-0.36,3.42c-1.21,1.95-2.85,3.5-4.58,4.99
			c-2.59,2.22-5.15,4.5-7.66,6.82c-1.14,1.05-2.32,1.5-3.79,0.89c-2.65-1.09-4.95-2.61-6.66-5.01c-2.19-3.08-2.62-6.59-2.63-10.19
			c-0.02-5.55,0.05-11.1,0.04-16.66c-0.01-4.42-0.05-8.85-0.13-13.27c-0.03-1.84-0.17-3.68-0.36-5.5c-0.06-0.54-0.37-1.09-0.69-1.56
			c-0.81-1.23-2.02-0.92-3.12-0.6c-0.83,0.25-1.61,0.69-2.4,1.09c-2.49,1.27-3.19,3.54-3.23,6.08c-0.06,4.09-0.07,8.18-0.05,12.27
			c0.01,3.24,0.12,6.48,0.12,9.72c0,1.33-0.23,2.66-0.24,3.99c-0.01,1.15,0.13,2.3,0.21,3.44c0.12,1.71,0.98,2.79,2.66,3.26
			c1.03,0.29,1.62,1.68,1.17,2.64c-0.09,0.18-0.43,0.28-0.67,0.34c-3.65,1.02-6.75,2.86-8.91,6.03c-0.76,1.11-1.17,2.46-1.85,3.64
			c-0.41,0.72-1.01,1.34-1.58,1.95c-0.4,0.43-0.74,0.32-1.06-0.22c-2.36-3.99-5.62-7.13-9.47-9.65c-1.18-0.77-2.52-1.32-3.84-1.83
			c-0.74-0.29-1.06-0.73-1.13-1.46c-0.02-0.24-0.01-0.49-0.07-0.72c-0.16-0.7-0.01-1.04,0.82-1.06c0.74-0.02,1.5-0.21,2.22-0.45
			c2.55-0.85,3.37-2.9,3.44-5.33c0.08-2.97,0.04-5.94,0.08-8.91c0.05-3.82,0.22-7.64,0.17-11.46c-0.04-2.88-0.3-5.75-0.58-8.62
			c-0.09-0.95-0.46-1.88-0.81-2.78c-0.39-0.99-1.24-1.18-2.56-0.72c-0.74,0.26-1.5,0.48-2.25,0.7c-0.63,0.19-1.36,0.18-1.6-0.44
			c-0.22-0.58-0.26-1.39-0.01-1.94c0.27-0.63,0.93-1.1,1.45-1.6c1.88-1.8,3.91-3.46,5.61-5.41c2.09-2.4,4.46-4.42,6.98-6.33
			c1.16-0.88,2.06-0.46,3.04,0.16c2.03,1.27,3.69,2.93,5.07,4.88c0.56,0.79,1.08,1.61,1.65,2.39c1.12,1.54,1.37,3.41,1.94,5.15
			c0.06,0.2,0.13,0.39,0.26,0.77c5.95-5.45,11.89-10.73,18.8-14.83c1.14,1.33,2.14,2.77,3.39,3.93c3.35,3.1,7.06,5.71,11.19,7.7
			c0.74,0.36,1.27,1.79,0.87,2.49c-0.1,0.18-0.38,0.28-0.59,0.36c-0.82,0.32-1.64,0.61-2.46,0.94c-2.11,0.83-3.41,2.45-3.63,4.62
			c-0.28,2.64-0.22,5.31-0.25,7.97c-0.03,2.57-0.01,5.14,0,7.71c0.01,1.72,0.05,3.44,0.04,5.17c-0.01,2.36-0.17,4.73-0.05,7.09
			c0.07,1.27,0.45,2.57,0.93,3.77c0.75,1.87,3.01,2.45,4.86,1.41C7320.55,7186.25,7321.27,7185.88,7322.09,7185.43z"/>
		<path class="st0" d="M7135.53,7181.91c-1.56-1.69-3.17-3.18-4.48-4.91c-1.76-2.31-3.35-4.76-3.75-7.77
			c-0.26-1.99,0.1-3.84,0.74-5.7c1.26-3.61,3.8-6.23,6.63-8.59c2.74-2.29,5.61-4.42,8.37-6.69c2.11-1.72,4.16-3.51,6.19-5.33
			c1.21-1.08,2.34-2.25,3.47-3.41c0.29-0.29,0.45-0.7,0.7-1.03c0.17-0.22,0.44-0.56,0.61-0.53c0.31,0.04,0.74,0.26,0.86,0.52
			c1.15,2.57,3.08,4.4,5.47,5.75c1.44,0.82,3.01,1.02,4.7,1.03c1.94,0.02,3.66-0.42,5.33-1.24c3.04-1.5,4.64-4.75,4.15-8.07
			c-0.66-4.46-3.35-7.39-7.1-9.43c-4.75-2.58-9.88-3.08-15.07-1.79c-4.03,1-7.49,3.08-9.71,6.78c-0.91,1.53-1.4,3.22-1.51,4.99
			c-0.06,0.89-0.46,1.25-1.32,1.14c-0.03,0-0.06,0-0.09,0c-2.17-0.03-2.4-0.34-1.75-2.45c0.36-1.18,0.61-2.43,1.2-3.49
			c1.21-2.15,2.49-4.25,4.43-5.89c1.87-1.6,3.98-2.77,6.25-3.6c1.66-0.61,3.44-1.02,5.2-1.2c5.55-0.57,10.75,0.62,15.41,3.72
			c1.19,0.79,2.22,1.89,3.17,2.98c5.11,5.83,5.87,12.62,4.11,19.86c-0.69,2.84-2.26,5.23-4.45,7.19c-1.48,1.33-2.63,2.92-3.59,4.65
			c-0.51,0.93-0.38,1.09,0.61,1.5c3.15,1.29,5.54,3.41,6.84,6.62c1.46,3.61,1.35,7.28,0.35,10.97c-1.14,4.23-3.63,7.63-6.86,10.47
			c-3.04,2.68-6.35,5.07-9.29,7.85c-2.18,2.07-3.97,4.56-5.92,6.86c-0.72,0.85-1.42,1.73-2.17,2.56c-0.12,0.14-0.5,0.17-0.7,0.08
			c-0.98-0.41-1.98-0.79-2.89-1.32c-2.94-1.69-5.85-3.44-8.76-5.18c-2.57-1.53-5.35-2.59-8.29-2.76c-1.38-0.08-2.81,0.8-4.21,1.24
			c-1.15,0.36-2.27,0.83-3.44,1.06c-0.93,0.18-1.39-0.47-0.99-1.35c0.33-0.73,0.76-1.47,1.31-2.05c2.12-2.25,3.53-4.97,5.2-7.53
			c1.44-2.2,3.19-4.19,4.81-6.27C7135.41,7182.05,7135.5,7181.94,7135.53,7181.91z M7164.61,7184.53c-0.31-1.57-0.62-3.13-0.92-4.7
			c-0.51-2.62-2-4.56-4.23-5.94c-0.81-0.51-1.68-1.02-2.59-1.26c-3.62-0.96-7.11-0.46-10.4,1.27c-3.24,1.71-5.8,4.03-6.53,7.87
			c-0.12,0.63,0.02,0.9,0.61,1.05c1.77,0.43,3.54,0.83,5.29,1.31c3.47,0.95,6.73,2.33,9.61,4.57c1.54,1.2,3.24,2.23,4.94,3.2
			c1.19,0.68,2.01,0.3,2.59-0.91C7163.95,7188.95,7164.48,7186.83,7164.61,7184.53z M7152.86,7168.74c1.77-0.4,3.57-0.68,5.29-1.22
			c3.33-1.04,5.96-3.02,7.58-6.19c0.15-0.3,0.18-0.66,0.27-1c-0.35-0.04-0.7-0.16-1.04-0.12c-3.26,0.39-6.42,0.32-9.55-0.98
			c-3.77-1.56-6.96-3.76-9.36-7.07c-0.86-1.19-0.93-1.21-2.17-0.48c-0.21,0.12-0.39,0.28-0.56,0.45c-1.08,1.07-1.4,2.44-1.46,3.9
			c-0.08,1.96,0.5,3.74,1.23,5.53C7144.67,7165.48,7148.1,7168.77,7152.86,7168.74z"/>
		<path class="st0" d="M7094.57,7207.65c-1.3-0.79-2.76-1.5-4.01-2.48c-3.29-2.59-6.53-5.22-10.24-7.22
			c-1.96-1.06-3.98-1.9-6.18-2.35c-1.09-0.23-2.15-0.62-3.23-0.91c-0.84-0.22-1.21-0.76-1.15-1.6c0.06-0.92,0.74-1.17,1.5-1.3
			c0.73-0.12,1.54-0.09,2.19-0.38c1.14-0.52,1.85-1.52,1.92-2.79c0.11-1.99,0.13-4,0.13-5.99c0.01-2.4-0.04-4.79-0.05-7.18
			c-0.03-5.97-0.07-11.94-0.05-17.91c0.01-1.9,0.21-3.8,0.3-5.7c0.03-0.57,0.28-0.78,0.83-0.85c3.18-0.43,6.4-0.7,9.52-1.38
			c2.8-0.6,5.54-1.58,8.25-2.53c2.11-0.74,4.15-1.68,6.2-2.59c2.13-0.95,3.91-2.43,5.51-4.09c0.79-0.82,1.59-1.02,2.61-0.6
			c1.81,0.74,3.34,1.91,4.44,3.49c1.7,2.46,3.35,4.97,4.81,7.57c0.68,1.21,0.95,2.68,1.24,4.07c0.81,3.83,1.17,7.72,1.12,11.64
			c-0.06,4.39-0.15,8.77-0.16,13.16c-0.01,2.71-0.27,5.38-1.05,7.98c-0.52,1.72-1.34,3.29-2.46,4.71c-1.83,2.31-4.4,3.29-7.08,3.98
			c-4.06,1.04-7.71,2.77-10.54,5.92C7097.45,7203.95,7096.13,7205.72,7094.57,7207.65z M7101.87,7192.46
			c0.1-0.09,0.2-0.17,0.31-0.26c-0.04-0.6-0.11-1.19-0.1-1.79c0.01-4.33,0.09-8.66,0.04-12.99c-0.07-5.88-0.04-11.77-0.4-17.63
			c-0.33-5.34-2.4-7.4-6.96-8.62c-0.52-0.14-0.85-0.04-0.98,0.47c-0.32,1.23-0.72,2.45-0.88,3.7c-0.72,5.51,0.13,11.01,0.1,16.52
			c-0.01,2.81-0.07,5.62-0.08,8.43c0,1.29-0.05,2.6,0.12,3.88c0.24,1.88,1.38,3.27,2.91,4.32
			C7097.9,7189.85,7099.89,7191.14,7101.87,7192.46z"/>
		<path class="st0" d="M7096.15,7250.3c-0.52,0.06-1,0.11-1.47,0.17c-2.59,0.33-4.37,2.26-4.36,4.87c0,2.55,0.16,5.09,0.16,7.64
			c0,4.3-0.19,8.6-0.07,12.9c0.06,2.18,0.47,4.39,0.98,6.52c0.38,1.58,1.37,1.91,2.89,1.3c0.7-0.28,1.34-0.7,2.01-1.06
			c1.11-0.6,1.25-0.58,2.05,0.34c0.33,0.38,0.69,0.74,0.96,1.01c-3.37,3.26-6.67,6.46-9.98,9.64c-1.46,1.41-2.93,2.8-4.42,4.17
			c-0.15,0.13-0.58,0.14-0.76,0.02c-2.78-1.78-5.05-4.06-6.63-6.97c-0.93-1.7-1.3-3.56-1.26-5.51c0-0.19-0.04-0.46-0.17-0.55
			c-0.12-0.08-0.42-0.04-0.56,0.06c-0.64,0.45-1.33,0.87-1.88,1.42c-2.47,2.49-4.94,4.99-7.34,7.55c-1.76,1.87-3.42,3.84-5.12,5.77
			c-0.1,0.11-0.22,0.19-0.48,0.42c-0.84-1.08-1.58-2.17-2.46-3.14c-1.71-1.88-3.32-3.9-5.29-5.46c-2.23-1.76-4.86-2.94-7.78-3.28
			c-0.42-0.05-0.8-0.42-1.2-0.64c0.21-0.34,0.38-0.72,0.64-1.01c1.3-1.4,2.89-2.38,4.62-3.15c0.83-0.37,1.28-0.87,1.3-1.92
			c0.08-3.79,0.3-7.57,0.49-11.36c0.12-2.54,0.4-5.08,0.38-7.62c-0.02-2.51-0.29-5.02-0.56-7.51c-0.08-0.75-0.44-1.51-0.8-2.2
			c-0.46-0.88-1.83-1.16-2.92-0.83c-0.77,0.23-1.58,0.42-2.38,0.45c-0.83,0.03-1.13-0.42-0.77-1.18c0.39-0.85,0.84-1.7,1.44-2.4
			c2.64-3.05,5.26-6.11,8.04-9.02c1.9-2,2.88-2.06,5.17-0.52c2.91,1.95,5.29,4.38,6.16,8.01c0.56,2.33,0.64,4.67,0.65,7.03
			c0.02,5.09,0.06,10.18,0.09,15.27c0.02,3.15-0.03,6.3,0.05,9.45c0.04,1.42,0.21,2.86,1.13,4.05c1.28,1.67,3.76,2.08,5.76,0.94
			c0.6-0.34,1.18-0.75,1.73-1.17c1.75-1.35,2.78-3.06,2.45-5.34c-0.54-3.81-0.28-7.6-0.02-11.42c0.26-3.77,0.29-7.56-0.59-11.31
			c-0.4-1.69-1.44-2.58-2.91-3.2c-0.19-0.08-0.4-0.13-0.61-0.2c-1.44-0.47-1.79-1.21-1.19-2.63c0.08-0.2,0.39-0.36,0.63-0.42
			c2.46-0.68,4.6-1.95,6.29-3.81c1.64-1.8,3.11-3.76,4.55-5.72c0.96-1.3,0.95-1.42,2-0.22c1.45,1.66,2.8,3.41,4.18,5.13
			c1.36,1.69,3.01,2.98,5.11,3.61C7096.22,7247.91,7096.22,7247.9,7096.15,7250.3z"/>
		<path class="st0" d="M7370.43,7179.59c0.42,0.6,0.91,1.22,1.28,1.9c0.1,0.19-0.05,0.67-0.24,0.83c-1.51,1.25-3.04,2.48-4.61,3.66
			c-1.02,0.76-2.09,1.46-3.18,2.11c-4.6,2.7-8.55,6.22-12.4,9.86c-1.01,0.96-1.75,2.22-2.53,3.4c-0.39,0.59-0.62,0.89-1.4,0.47
			c-2.26-1.22-4.59-2.32-6.89-3.47c-0.08-0.04-0.19-0.05-0.25-0.11c-2.56-2.49-5.88-4.07-8.21-6.86c-2.08-2.48-3.16-5.38-3.76-8.46
			c-0.38-1.98-0.52-4.02-0.56-6.04c-0.06-3.23,0.11-6.47,0.07-9.7c-0.04-3.12-0.26-6.23-0.36-9.35c-0.05-1.72,0.01-3.45-0.03-5.17
			c-0.05-2.22,0.65-4.25,1.69-6.13c1.39-2.53,3.76-4,6.3-5.14c3.84-1.72,7.73-3.32,11.6-5c2.67-1.15,5.32-2.34,7.98-3.5
			c1.38-0.6,2.79-1.14,4.12-1.83c0.75-0.39,1.06-0.03,1.36,0.49c0.58,1.02,1.12,2.07,1.69,3.1c1.48,2.67,3.11,5.28,4.43,8.03
			c1.55,3.24,2.84,6.61,4.25,9.92c0.26,0.61,0.1,0.98-0.49,1.33c-4.52,2.76-9.03,5.54-13.53,8.33c-1.93,1.19-3.84,2.43-5.77,3.62
			c-0.95,0.58-1.91,1.16-2.91,1.63c-2.49,1.15-3.31,3.89-2.24,6.57c1.53,3.83,4.42,6.39,7.82,8.43c0.83,0.5,1.97,0.56,2.99,0.68
			c3.18,0.37,6.22-0.44,9.19-1.42C7367.39,7181.23,7368.82,7180.36,7370.43,7179.59z M7345.65,7165.59
			c0.34-0.13,0.46-0.15,0.55-0.21c2.53-1.82,5.07-3.63,7.58-5.48c1.1-0.81,1.06-0.88,0.35-2.04c-0.74-1.21-1.47-2.42-2.17-3.66
			c-1.06-1.88-2.08-3.78-3.13-5.67c-1.3-2.32-2.6-4.64-3.93-6.95c-0.13-0.23-0.42-0.38-0.63-0.57c-0.13,0.28-0.38,0.56-0.36,0.83
			c0.1,1.93,0.22,3.86,0.4,5.78c0.22,2.31,0.56,4.61,0.74,6.92c0.14,1.92,0.08,3.86,0.18,5.79
			C7345.31,7162.03,7345.5,7163.74,7345.65,7165.59z"/>
		<path class="st0" d="M7395.71,7139.22c0,1.8-0.17,3.62,0.04,5.4c0.36,3,0.18,5.98,0.05,8.97c-0.15,3.38-0.04,6.78,0,10.16
			c0.03,2.21,0.15,4.41,0.23,6.62c0.11,3.16,1.79,5.56,3.88,7.68c1.82,1.84,3.83,3.54,6.47,4c2.45,0.42,4.98,0.52,7.39-0.25
			c1.65-0.53,3.2-1.38,4.79-2.11c0.6-0.28,1.18-0.62,1.77-0.92c0.42-0.21,0.73-0.21,0.89,0.34c0.22,0.79,0.46,1.57,0.76,2.33
			c0.22,0.57,0.05,0.93-0.41,1.24c-2.31,1.55-4.65,3.06-6.92,4.68c-2.55,1.83-5.08,3.7-7.52,5.67c-2.32,1.88-4.51,3.93-6.77,5.89
			c-0.69,0.59-1.41,1.14-2.17,1.64c-0.2,0.13-0.64,0.1-0.85-0.04c-1.84-1.17-3.67-2.35-5.46-3.59c-2.54-1.75-5.06-3.53-7.54-5.37
			c-0.83-0.61-1.68-1.33-2.2-2.19c-1.29-2.15-2.56-4.34-3.52-6.65c-0.6-1.44-0.77-3.11-0.85-4.69c-0.22-3.99-0.46-8-0.36-11.99
			c0.11-4.41,0.56-8.82,0.92-13.23c0.15-1.87,0.31-3.75,0.67-5.58c0.67-3.4,2.92-5.55,5.86-7.21c3.63-2.04,7.7-2.85,11.5-4.4
			c2.46-1.01,4.84-2.21,7.29-3.22c1.28-0.53,2.65-0.83,3.97-1.26c0.92-0.3,1.84-0.63,2.73-1.01c0.77-0.33,1.21-0.15,1.57,0.61
			c0.94,2,1.91,3.99,2.9,5.97c1.71,3.44,3.43,6.87,5.17,10.29c0.61,1.19,0.54,2.13-0.56,2.89c-2.71,1.88-5.43,3.75-8.23,5.5
			c-1.81,1.13-3.77,2.03-5.65,3.06c-0.5,0.27-0.82,0.14-1.04-0.31c-0.42-0.87-0.85-1.74-1.21-2.64c-0.74-1.85-1.36-3.74-2.17-5.56
			c-1.51-3.43-3.11-6.83-4.68-10.23c-0.1-0.21-0.26-0.38-0.39-0.57C7395.95,7139.16,7395.83,7139.19,7395.71,7139.22z"/>
		<path class="st0" d="M7221.47,7184.37c0.9,1.03,0.98,2.36,0.18,3.38c-0.49,0.62-1.06,1.16-1.63,1.71
			c-3.72,3.55-7.43,7.13-11.19,10.63c-1.97,1.83-4.05,3.54-6.08,5.31c-0.48,0.42-0.79,0.41-1.23-0.16c-2.68-3.43-5.73-6.5-9.33-8.97
			c-1.91-1.31-3.95-2.44-5.94-3.64c-0.22-0.13-0.52-0.17-0.78-0.2c-1.23-0.12-1.36-0.22-1.3-1.43c0.03-0.56,0.17-1.11,0.24-1.56
			c1.34,0.07,2.53,0.15,3.73,0.18c2.62,0.06,4.39-2.27,4.81-4.22c0.64-3.02,0.64-6.08,0.59-9.15c-0.05-3.67,0-7.34,0-11.01
			c0-0.49-0.03-0.97-0.02-1.46c0.03-2.48,0.05-4.96,0.1-7.44c0.04-2.13-0.65-2.93-2.76-2.91c-1.96,0.02-3.93,0.16-5.89,0.25
			c-0.18,0.01-0.35,0-0.61,0c-0.1-0.58-0.25-1.14-0.27-1.7c-0.03-0.75,0.34-1.25,1.08-1.48c5.7-1.82,10.15-5.44,14.04-9.83
			c0.9-1.01,1.61-2.2,2.31-3.36c1.08-1.78,2.27-3.53,3.06-5.44c1.13-2.71,1.96-5.54,2.85-8.33c0.24-0.74,0.29-1.55,0.31-2.33
			c0.04-1.65,1.1-2.82,2.98-2.76c0.19,0.01,0.49,0.34,0.52,0.55c0.07,0.57,0.01,1.15,0.01,1.72c0.01,4.86,0.03,9.73,0.04,14.59
			c0.01,2.33-0.03,4.65,0.01,6.98c0.02,1.28,0.55,1.83,1.83,1.86c1.63,0.04,3.26-0.05,4.89-0.06c1.24-0.01,2.48-0.05,3.71,0.04
			c0.32,0.03,0.84,0.51,0.86,0.81c0.14,2.3,0.24,4.6,0.21,6.9c-0.01,1.1-0.98,1.82-2.24,1.77c-1.09-0.04-2.16-0.26-3.25-0.32
			c-1.2-0.07-2.42-0.14-3.62-0.05c-1.28,0.09-1.91,0.98-2.09,2.23c-0.55,3.96,0.05,7.92,0.06,11.87c0,4.06,0.08,8.11,0.1,12.17
			c0.01,2.24-0.05,4.48-0.02,6.72c0.01,0.59,0.16,1.21,0.38,1.76c0.5,1.24,1.77,1.69,3.11,1c1.09-0.57,2.1-1.32,3.11-2.04
			c0.54-0.38,1-0.88,1.52-1.31C7220.39,7185.24,7220.91,7184.83,7221.47,7184.37z"/>
		<path class="st0" d="M7256.75,7187.49c1.03,2.47,0.29,4.07-1.42,5.47c-1.66,1.36-3.22,2.85-4.78,4.33
			c-2.07,1.95-4.16,3.9-6.14,5.94c-1.62,1.67-3.52,1.46-5.02,0.44c-3.08-2.09-5.55-4.81-7.28-8.1c-1.14-2.18-1.43-4.6-1.35-7.07
			c0.12-3.85,0.15-7.7,0.23-11.55c0.1-5.67,0.22-11.33,0.31-17c0.03-2.18,0.05-4.37-0.05-6.55c-0.03-0.71-0.32-1.53-0.78-2.07
			c-0.87-1.02-1.59-0.8-3.32-0.11c-0.45,0.18-0.86,0.44-1.3,0.66c-0.6,0.3-0.84,0.02-0.9-0.56c-0.01-0.15-0.03-0.31,0.01-0.45
			c0.43-1.84,0.93-3.61,2.45-4.94c3.19-2.79,6.32-5.66,9.48-8.49c0.52-0.46,1.06-0.91,1.65-1.27c1.45-0.89,2.59-0.78,3.74,0.48
			c1.02,1.11,1.88,2.37,2.85,3.53c2.01,2.41,4.22,4.58,7.25,5.72c0.93,0.35,1.86,0.71,2.78,1.07c0.06,0.02,0.16,0.04,0.16,0.07
			c0.1,0.81,0.24,1.62,0.24,2.43c0,0.21-0.43,0.5-0.71,0.61c-0.89,0.36-1.85,0.56-2.71,0.99c-2.16,1.07-2.82,3.16-3.01,5.29
			c-0.22,2.59-0.13,5.21-0.11,7.82c0.02,3.03,0.07,6.06,0.15,9.09c0.11,4.12,0.18,8.24,0.43,12.35c0.19,3.12,2.9,4.35,5.58,2.69
			C7255.68,7188.01,7256.22,7187.77,7256.75,7187.49z"/>
		<path class="st0" d="M7343.62,7249.5c1.37,2.08,3.34,3.48,5.38,4.81c1.47,0.95,2.99,1.72,4.77,1.89c0.24,0.02,0.6,0.39,0.64,0.63
			c0.09,0.59,0.03,1.2,0.03,1.75c-0.74,0.33-1.47,0.56-2.08,0.96c-1.24,0.81-1.85,2.07-2.06,3.5c-0.56,3.83-0.65,7.66-0.15,11.51
			c0.21,1.64,0.04,3.33,0.18,4.99c0.1,1.26,0.32,2.52,0.68,3.73c0.38,1.28,1.48,1.64,2.7,1.05c0.57-0.28,1.12-0.61,1.67-0.92
			c0.82-0.46,0.97-0.34,1.16,0.6c0.26,1.29-0.4,2.16-1.23,2.94c-1.17,1.1-2.41,2.12-3.58,3.21c-1.28,1.2-2.48,2.48-3.76,3.68
			c-1.16,1.08-2.7,1.25-4.12,0.5c-1.81-0.96-2.99-2.52-3.88-4.31c-0.57-1.16-1.02-2.38-1.59-3.76c-0.55,0.39-1.07,0.72-1.55,1.1
			c-2.4,1.93-4.79,3.87-7.18,5.81c-0.73,0.59-1.43,1.22-2.2,1.75c-1.66,1.12-2.12,1.06-3.58-0.37c-0.43-0.42-0.79-0.91-1.17-1.38
			c-1.79-2.25-4.34-3.24-6.91-4.16c-0.77-0.28-1.17-0.72-1.21-1.5c-0.03-0.6-0.08-1.22,0.03-1.81c0.06-0.3,0.39-0.7,0.68-0.8
			c2.36-0.81,4.16-3.22,4.1-5.68c-0.04-1.72-0.22-3.45-0.25-5.17c-0.03-2.06,0.11-4.12,0.04-6.18c-0.06-1.84-0.19-3.7-0.51-5.5
			c-0.29-1.62-2.1-2.54-4.12-2.41c-0.34,0.02-0.79-0.11-1.01-0.34c-0.16-0.16-0.15-0.73,0.01-0.91c2.71-2.98,5.54-5.85,8.91-8.12
			c2.13-1.43,2.68-1.3,4.56,0.43c3.05,2.81,4.33,6.41,4.54,10.39c0.23,4.24,0.19,8.49,0.32,12.73c0.08,2.51,0.23,5.02,0.38,7.53
			c0.03,0.44,0.21,0.88,0.37,1.31c0.33,0.91,0.85,1.6,1.95,1.62c1.12,0.02,2.18-0.63,2.68-1.55c1.03-1.91,1.07-3.97,0.93-6.03
			c-0.3-4.32-0.7-8.64-1.05-12.96c-0.04-0.48-0.03-0.97-0.07-1.45c-0.09-1.09-0.47-1.97-1.52-2.52c-0.8-0.42-1.34-2.47-0.89-3.23
			c0.09-0.15,0.32-0.25,0.51-0.31c3.68-1.07,6.25-3.46,8.03-6.77c0.03-0.05,0.07-0.1,0.12-0.13
			C7343.34,7249.61,7343.4,7249.6,7343.62,7249.5z"/>
		<path class="st0" d="M7210.21,7281.41c0-3.81-0.03-7.63,0.02-11.44c0.02-1.57,0.21-3.14,0.32-4.71c0.13-1.84-0.95-2.84-2.76-2.55
			c-0.64,0.1-2.16-0.7-2.26-1.42c-0.07-0.52,0.2-1.3,0.6-1.65c2.55-2.23,5.18-4.38,7.79-6.55c0.16-0.14,0.34-0.25,0.52-0.37
			c2.1-1.39,3.05-1.25,4.86,0.5c1.34,1.3,2.72,2.59,4.19,3.73c0.89,0.69,1.97,1.19,3.03,1.58c0.83,0.3,0.88,0.83,0.94,1.53
			c0.06,0.72-0.37,0.79-0.87,1.01c-2.18,0.96-3.32,2.75-3.67,5.04c-0.56,3.6-0.02,7.18,0.23,10.77c0.11,1.63,0.08,3.27,0.17,4.91
			c0.04,0.75,0.16,1.51,0.33,2.24c0.33,1.45,1.91,2.08,3.2,1.37c0.46-0.26,1.03-0.33,1.55-0.48c0.07,0.63,0.32,1.31,0.18,1.89
			c-0.15,0.64-0.57,1.28-1.01,1.79c-0.95,1.1-1.94,2.17-3.02,3.14c-1.64,1.47-3.35,2.86-5.06,4.26c-2.2,1.8-2.15,1.37-3.77-0.18
			c-0.74-0.71-1.58-1.33-2.29-2.07c-0.52-0.54-1.02-1.14-1.34-1.81C7210.9,7289.44,7209.94,7284.27,7210.21,7281.41z"/>
		<path class="st0" d="M7248.79,7120.53c0.05,2.81-1.16,4.99-2.85,6.96c-1.14,1.33-2.23,2.7-3.45,3.95c-0.97,1-1.74,1.08-2.8,0.15
			c-1.12-0.99-2.15-2.13-3.01-3.35c-1.53-2.17-2.74-4.53-2.88-7.25c-0.17-3.29,1.43-6.39,5.05-7.47c2.07-0.62,4.03-0.51,5.89,0.43
			C7246.93,7115.06,7249.2,7117.34,7248.79,7120.53z"/>
		<path class="st0" d="M7343.97,7238.33c0.11,1.18-0.41,2.65-1.7,3.72c-1.06,0.88-2.17,1.77-3.39,2.39
			c-1.69,0.86-3.27,1.82-4.57,3.22c-0.15,0.16-0.53,0.33-0.66,0.26c-1.75-1-3.74-1.6-5.17-3.13c-1.98-2.12-2.39-4.5-1.24-7.13
			c1.41-3.24,3.82-5.64,7.2-6.45C7338.92,7230.13,7343.52,7232.03,7343.97,7238.33z"/>
		<path class="st0" d="M7214.25,7248.98c0.63-0.77,1.26-1.54,1.89-2.3c1.52-1.83,2.35-4.01,3.03-6.24c0.45-1.47-0.4-2.66-1.95-2.79
			c-0.42-0.04-0.86-0.1-1.27-0.02c-0.99,0.19-1.25-0.32-1.39-1.17c-0.37-2.3-0.39-2.25,1.86-2.3c3.87-0.07,7.74-0.2,11.74-0.31
			c-0.18,4.05-1.6,7.56-4.15,10.6c-2.52,2.99-5.8,4.49-9.66,4.74C7214.33,7249.12,7214.29,7249.05,7214.25,7248.98z"/>
		<path class="st0" d="M7263.9,7245.19c-0.39-0.81-0.73-1.53-1.22-2.56c1.41,0.17,2.57,0.3,3.72,0.43c0.03,0.12,0.06,0.23,0.08,0.35
			C7265.67,7243.97,7264.86,7244.53,7263.9,7245.19z"/>
	</g>
</g>
</svg>
